<?xml version="1.0" encoding="UTF-8"?>
<!DOCTYPE svg PUBLIC "-//W3C//DTD SVG 1.1//EN" "http://www.w3.org/Graphics/SVG/1.1/DTD/svg11.dtd">
<!-- Creator: CorelDRAW Home & Student X7 -->
<svg xmlns="http://www.w3.org/2000/svg" xml:space="preserve" width="100mm" height="100mm" version="1.1" style="shape-rendering:geometricPrecision; text-rendering:geometricPrecision; image-rendering:optimizeQuality; fill-rule:evenodd; clip-rule:evenodd"
viewBox="0 0 10000 10000"
 xmlns:xlink="http://www.w3.org/1999/xlink">
 <defs>
  <style type="text/css">
   <![CDATA[
    .fil0 {fill:#2B2A29}
   ]]>
  </style>
 </defs>
 <g id="Warstwa_x0020_1">
  <metadata id="CorelCorpID_0Corel-Layer"/>
  <path class="fil0" d="M9355 6063l-810 811 0 0 -810 810 0 0 -304 304 -507 506 -810 -810 0 0 -810 -810 0 0 -304 -304 -304 304 0 0 -810 810 0 0 -304 304 -506 506 -810 -810 0 0 -811 -810 0 0 -810 -811 0 -2025 0 0 0 0 0 -2026 0 0 506 -506 811 810 0 0 810 810 0 0 304 304 303 -304 0 0 811 -810 0 0 304 -304 506 -506 810 810 0 0 810 810 0 0 304 304 304 -304 0 0 810 -810 0 0 811 -810 506 506 0 0 0 4051 0 0 0 0zm-7994 -296l601 600 0 0 810 810 0 1 304 303 304 -304 0 0 810 -810 0 0 304 -304 506 -506 810 810 0 0 811 810 0 0 303 304 304 -304 0 0 810 -810 1 0 600 -600 0 -1013 -94 94 0 0 -810 810 0 0 -304 304 -507 507 -810 -811 0 0 -810 -810 0 0 -304 -304 -304 304 0 0 -810 810 0 0 -304 304 -506 507 -811 -811 0 0 -810 -810 0 0 -94 -94 0 1013zm0 -2026l601 601 0 0 810 810 0 0 304 304 304 -304 0 0 810 -810 0 0 304 -304 506 -507 810 811 0 0 810 810 0 0 304 304 304 -304 0 0 810 -810 0 0 601 -601 0 -1013 -94 95 0 0 -810 810 -1 0 -303 304 -507 506 -810 -810 0 0 -810 -810 0 0 -304 -304 -304 304 0 0 -810 810 0 0 -304 304 -506 506 -811 -810 0 0 -810 -810 0 0 -94 -94 0 1012z"/>
 </g>
</svg>
